<?xml version='1.0' encoding='UTF-8' standalone='no'?>
<svg xmlns="http://www.w3.org/2000/svg" width="780pt" height="521pt" viewBox="0 0 780 521" xmlns:xlink="http://www.w3.org/1999/xlink">
 <title>gl2ps_renderer figure</title>
 <desc>
Creator: GL2PS 1.4.0, (C) 1999-2017 C. Geuzaine
For: Octave
CreationDate: Sun Jan 17 22:58:12 2021
</desc>
 <defs/>
 <polygon points="0,0 780,0 780,521 0,521" fill="#ffffff"/>
 <g>
  <polygon shape-rendering="crispEdges" points="0,521 780,521 780,0 0,0" fill="#ffffff"/>
  <clipPath id="cp00780521">
   <polygon points="0,521 780,521 780,0 0,0"/>
  </clipPath>
  <g clip-path="url(#cp00780521)">
   <polygon shape-rendering="crispEdges" points="101.48,464.277 706.455,464.277 706.455,39.1245 101.48,39.1245" fill="#ffffff"/>
   <polyline stroke-opacity="0.15" stroke-linejoin="miter" points="101.48,464.277 101.48,39.1245" stroke-width="0.5" stroke-dasharray="16,0" fill="none" stroke-linecap="butt" stroke="#262626"/>
   <polyline stroke-opacity="0.15" stroke-linejoin="miter" points="252.724,464.277 252.724,39.1245" stroke-width="0.5" stroke-dasharray="16,0" fill="none" stroke-linecap="butt" stroke="#262626"/>
   <polyline stroke-opacity="0.15" stroke-linejoin="miter" points="403.968,464.277 403.968,39.1245" stroke-width="0.5" stroke-dasharray="16,0" fill="none" stroke-linecap="butt" stroke="#262626"/>
   <polyline stroke-opacity="0.15" stroke-linejoin="miter" points="555.212,464.277 555.212,39.1245" stroke-width="0.5" stroke-dasharray="16,0" fill="none" stroke-linecap="butt" stroke="#262626"/>
   <polyline stroke-opacity="0.15" stroke-linejoin="miter" points="706.455,464.277 706.455,39.1245" stroke-width="0.5" stroke-dasharray="16,0" fill="none" stroke-linecap="butt" stroke="#262626"/>
   <polyline stroke-linejoin="miter" points="101.48,464.277 101.48,458.226" stroke-width="0.5" fill="none" stroke-linecap="butt" stroke="#262626"/>
   <polyline stroke-linejoin="miter" points="101.48,39.1245 101.48,45.1765" stroke-width="0.5" fill="none" stroke-linecap="butt" stroke="#262626"/>
   <polyline stroke-linejoin="miter" points="252.724,464.277 252.724,458.226" stroke-width="0.5" fill="none" stroke-linecap="butt" stroke="#262626"/>
   <polyline stroke-linejoin="miter" points="252.724,39.1245 252.724,45.1765" stroke-width="0.5" fill="none" stroke-linecap="butt" stroke="#262626"/>
   <polyline stroke-linejoin="miter" points="403.968,464.277 403.968,458.226" stroke-width="0.5" fill="none" stroke-linecap="butt" stroke="#262626"/>
   <polyline stroke-linejoin="miter" points="403.968,39.1245 403.968,45.1765" stroke-width="0.5" fill="none" stroke-linecap="butt" stroke="#262626"/>
   <polyline stroke-linejoin="miter" points="555.212,464.277 555.212,458.226" stroke-width="0.5" fill="none" stroke-linecap="butt" stroke="#262626"/>
   <polyline stroke-linejoin="miter" points="555.212,39.1245 555.212,45.1765" stroke-width="0.5" fill="none" stroke-linecap="butt" stroke="#262626"/>
   <polyline stroke-linejoin="miter" points="706.455,464.277 706.455,458.226" stroke-width="0.5" fill="none" stroke-linecap="butt" stroke="#262626"/>
   <polyline stroke-linejoin="miter" points="706.455,39.1245 706.455,45.1765" stroke-width="0.5" fill="none" stroke-linecap="butt" stroke="#262626"/>
   <text font-style="normal" font-family="FreeSans" font-size="10" xml:space="preserve" transform="translate(98.4798,479.78) rotate(-0,3,-8)" font-weight="normal">
    <tspan x="0 " y="-0" fill="rgb(38,38,38)">0</tspan>
   </text>
   <text font-style="normal" font-family="FreeSans" font-size="10" xml:space="preserve" transform="translate(240.724,479.78) rotate(-0,12,-8)" font-weight="normal">
    <tspan x="0 6 12 18 " y="-0" fill="rgb(38,38,38)">1000</tspan>
   </text>
   <text font-style="normal" font-family="FreeSans" font-size="10" xml:space="preserve" transform="translate(391.968,479.78) rotate(-0,12,-8)" font-weight="normal">
    <tspan x="0 6 12 18 " y="-0" fill="rgb(38,38,38)">2000</tspan>
   </text>
   <text font-style="normal" font-family="FreeSans" font-size="10" xml:space="preserve" transform="translate(543.211,479.78) rotate(-0,12,-8)" font-weight="normal">
    <tspan x="0 6 12 18 " y="-0" fill="rgb(38,38,38)">3000</tspan>
   </text>
   <text font-style="normal" font-family="FreeSans" font-size="10" xml:space="preserve" transform="translate(694.455,479.78) rotate(-0,12,-8)" font-weight="normal">
    <tspan x="0 6 12 18 " y="-0" fill="rgb(38,38,38)">4000</tspan>
   </text>
   <polyline stroke-opacity="0.15" stroke-linejoin="miter" points="101.48,464.277 706.455,464.277" stroke-width="0.5" stroke-dasharray="16,0" fill="none" stroke-linecap="butt" stroke="#262626"/>
   <polyline stroke-opacity="0.15" stroke-linejoin="miter" points="101.48,379.247 706.455,379.247" stroke-width="0.5" stroke-dasharray="16,0" fill="none" stroke-linecap="butt" stroke="#262626"/>
   <polyline stroke-opacity="0.15" stroke-linejoin="miter" points="101.48,294.216 706.455,294.216" stroke-width="0.5" stroke-dasharray="16,0" fill="none" stroke-linecap="butt" stroke="#262626"/>
   <polyline stroke-opacity="0.15" stroke-linejoin="miter" points="101.48,209.186 706.455,209.186" stroke-width="0.5" stroke-dasharray="16,0" fill="none" stroke-linecap="butt" stroke="#262626"/>
   <polyline stroke-opacity="0.15" stroke-linejoin="miter" points="101.48,124.155 706.455,124.155" stroke-width="0.5" stroke-dasharray="16,0" fill="none" stroke-linecap="butt" stroke="#262626"/>
   <polyline stroke-opacity="0.15" stroke-linejoin="miter" points="101.48,39.1245 706.455,39.1245" stroke-width="0.5" stroke-dasharray="16,0" fill="none" stroke-linecap="butt" stroke="#262626"/>
   <polyline stroke-linejoin="miter" points="101.48,464.277 107.529,464.277" stroke-width="0.5" fill="none" stroke-linecap="butt" stroke="#262626"/>
   <polyline stroke-linejoin="miter" points="706.455,464.277 700.406,464.277" stroke-width="0.5" fill="none" stroke-linecap="butt" stroke="#262626"/>
   <polyline stroke-linejoin="miter" points="101.48,379.247 107.529,379.247" stroke-width="0.5" fill="none" stroke-linecap="butt" stroke="#262626"/>
   <polyline stroke-linejoin="miter" points="706.455,379.247 700.406,379.247" stroke-width="0.5" fill="none" stroke-linecap="butt" stroke="#262626"/>
   <polyline stroke-linejoin="miter" points="101.48,294.216 107.529,294.216" stroke-width="0.5" fill="none" stroke-linecap="butt" stroke="#262626"/>
   <polyline stroke-linejoin="miter" points="706.455,294.216 700.406,294.216" stroke-width="0.5" fill="none" stroke-linecap="butt" stroke="#262626"/>
   <polyline stroke-linejoin="miter" points="101.48,209.186 107.529,209.186" stroke-width="0.5" fill="none" stroke-linecap="butt" stroke="#262626"/>
   <polyline stroke-linejoin="miter" points="706.455,209.186 700.406,209.186" stroke-width="0.5" fill="none" stroke-linecap="butt" stroke="#262626"/>
   <polyline stroke-linejoin="miter" points="101.48,124.155 107.529,124.155" stroke-width="0.5" fill="none" stroke-linecap="butt" stroke="#262626"/>
   <polyline stroke-linejoin="miter" points="706.455,124.155 700.406,124.155" stroke-width="0.5" fill="none" stroke-linecap="butt" stroke="#262626"/>
   <polyline stroke-linejoin="miter" points="101.48,39.1245 107.529,39.1245" stroke-width="0.5" fill="none" stroke-linecap="butt" stroke="#262626"/>
   <polyline stroke-linejoin="miter" points="706.455,39.1245 700.406,39.1245" stroke-width="0.5" fill="none" stroke-linecap="butt" stroke="#262626"/>
   <text font-style="normal" font-family="FreeSans" font-size="10" xml:space="preserve" transform="translate(72.48,468.277) rotate(-0,24,-4)" font-weight="normal">
    <tspan x="0 6 12 18 " y="-0" fill="rgb(38,38,38)">2000</tspan>
   </text>
   <text font-style="normal" font-family="FreeSans" font-size="10" xml:space="preserve" transform="translate(72.48,383.247) rotate(-0,24,-4)" font-weight="normal">
    <tspan x="0 6 12 18 " y="-0" fill="rgb(38,38,38)">3000</tspan>
   </text>
   <text font-style="normal" font-family="FreeSans" font-size="10" xml:space="preserve" transform="translate(72.48,298.216) rotate(-0,24,-4)" font-weight="normal">
    <tspan x="0 6 12 18 " y="-0" fill="rgb(38,38,38)">4000</tspan>
   </text>
   <text font-style="normal" font-family="FreeSans" font-size="10" xml:space="preserve" transform="translate(72.48,213.186) rotate(-0,24,-4)" font-weight="normal">
    <tspan x="0 6 12 18 " y="-0" fill="rgb(38,38,38)">5000</tspan>
   </text>
   <text font-style="normal" font-family="FreeSans" font-size="10" xml:space="preserve" transform="translate(72.48,128.155) rotate(-0,24,-4)" font-weight="normal">
    <tspan x="0 6 12 18 " y="-0" fill="rgb(38,38,38)">6000</tspan>
   </text>
   <text font-style="normal" font-family="FreeSans" font-size="10" xml:space="preserve" transform="translate(72.48,43.1245) rotate(-0,24,-4)" font-weight="normal">
    <tspan x="0 6 12 18 " y="-0" fill="rgb(38,38,38)">7000</tspan>
   </text>
   <polyline stroke-linejoin="miter" points="101.48,464.277 706.455,464.277" stroke-width="0.5" stroke-dasharray="16,0" fill="none" stroke-linecap="square" stroke="#262626"/>
   <polyline stroke-linejoin="miter" points="101.48,39.1245 706.455,39.1245" stroke-width="0.5" stroke-dasharray="16,0" fill="none" stroke-linecap="square" stroke="#262626"/>
   <polyline stroke-linejoin="miter" points="101.48,464.277 101.48,39.1245" stroke-width="0.5" stroke-dasharray="16,0" fill="none" stroke-linecap="square" stroke="#262626"/>
   <polyline stroke-linejoin="miter" points="706.455,464.277 706.455,39.1245" stroke-width="0.5" stroke-dasharray="16,0" fill="none" stroke-linecap="square" stroke="#262626"/>
   <text font-style="normal" font-family="FreeSans" font-size="11" xml:space="preserve" transform="translate(389.468,494.78) rotate(-0,14.5,-10)" font-weight="normal">
    <tspan x="0 7 11 17 23 " y="-1" fill="rgb(38,38,38)">Kroků</tspan>
   </text>
   <text font-style="normal" font-family="FreeSans" font-size="11" xml:space="preserve" transform="translate(54.98,251.701) rotate(-90,12.5,0)" font-weight="normal">
    <tspan x="0 7 13 19 " y="-0" fill="rgb(38,38,38)">Váha</tspan>
   </text>
   <polyline stroke-linejoin="round" points="101.631,232.739 101.782,212.417 101.934,212.332 102.085,203.829 102.236,203.914 102.387,170.582 102.539,146.603 102.69,170.582 102.841,174.833 102.992,216.583 103.143,216.583 103.295,247.024 103.446,242.773 103.597,272.959 103.748,272.874 103.9,244.643 104.051,243.283 104.202,276.615 104.353,276.615 104.505,276.7 104.656,276.7 104.807,276.615 104.958,296.937 105.11,296.937 105.261,263.605 105.412,302.294 105.563,324.402 105.715,359.18 105.866,320.491 106.017,290.305 106.168,290.305 106.32,290.305 106.471,320.491 106.622,278.741 106.773,278.741 106.925,246.089 107.076,284.268 107.227,260.289 107.378,238.181 107.53,293.536 107.681,293.536 107.832,289.2 107.983,297.703 108.135,339.453 108.286,367.683 108.437,367.683 108.588,332.905 108.74,302.719 108.891,247.364 109.042,251.701 109.193,251.701 109.345,307.056 109.496,307.056 109.647,329.164 109.798,308.842 109.949,308.927 110.101,280.696 110.252,282.057 110.403,310.287 110.554,310.287 110.706,310.287 110.857,288.179 111.008,259.949 111.159,282.057 111.311,281.972 111.462,282.057 111.613,273.554 111.764,273.554 111.916,243.113 112.067,273.554 112.218,301.784 112.369,271.343 112.521,291.665 112.672,349.741 112.823,291.665 112.974,315.644 113.126,350.422 113.277,349.061 113.428,379.502 113.579,409.688 113.731,381.458 113.882,414.79 114.033,384.604 114.184,362.496 114.336,320.746 114.487,300.424 114.638,300.424 114.789,304.675 114.941,280.696 115.092,242.518 115.243,275.169 115.394,275.169 115.546,283.673 115.697,251.021 115.848,252.381 115.999,219.049 116.15,217.689 116.302,213.437 116.453,243.623 116.604,243.623 116.755,281.802 116.907,286.053 117.058,314.284 117.209,279.506 117.36,279.506 117.512,224.151 117.663,224.151 117.814,224.151 117.965,224.151 118.117,224.151 118.268,224.066 118.419,256.718 118.57,224.066 118.722,224.151 118.873,248.13 119.024,248.045 119.175,248.045 119.327,249.405 119.478,249.49 119.629,249.49 119.78,245.239 119.932,215.053 120.083,219.304 120.234,215.053 120.385,215.053 120.537,213.692 120.688,213.692 120.839,213.692 120.99,213.692 121.142,205.189 121.293,167.011 121.444,143.032 121.595,173.218 121.746,173.218 121.898,173.133 122.049,173.133 122.2,195.241 122.352,195.241 122.503,167.011 122.654,162.674 122.805,162.674 122.956,162.674 123.108,200.853 123.259,200.853 123.41,221.175 123.561,200.853 123.713,205.189 123.864,246.939 124.015,246.939 124.166,251.191 124.318,229.083 124.469,229.083 124.62,224.746 124.771,220.495 124.923,248.725 125.074,272.704 125.225,272.789 125.376,272.789 125.528,307.566 125.679,307.566 125.83,329.674 125.981,333.926 126.133,333.926 126.284,299.148 126.435,337.837 126.586,315.729 126.738,350.507 126.889,383.158 127.04,403.481 127.191,373.04 127.343,377.376 127.494,373.04 127.645,368.788 127.796,368.788 127.948,336.136 128.099,336.136 128.25,366.577 128.401,366.577 128.552,366.577 128.704,366.577 128.855,366.577 129.006,375.08 129.157,374.995 129.309,407.647 129.46,407.647 129.611,407.647 129.762,407.647 129.914,379.417 130.065,337.667 130.216,337.667 130.367,337.667 130.519,342.003 130.67,318.025 130.821,322.276 130.972,350.507 131.124,315.729 131.275,315.729 131.426,315.729 131.577,339.708 131.729,315.729 131.88,287.499 132.031,257.058 132.182,257.143 132.334,257.058 132.485,291.835 132.636,291.835 132.787,287.499 132.939,315.729 133.09,277.55 133.241,247.364 133.392,277.805 133.544,319.555 133.695,315.304 133.846,315.304 133.997,280.526 134.149,247.875 134.3,247.96 134.451,286.138 134.602,244.388 134.753,266.496 134.905,246.174 135.056,246.174 135.207,215.733 135.358,215.733 135.51,215.733 135.661,215.733 135.812,187.503 135.963,211.482 136.115,172.793 136.266,164.29 136.417,194.475 136.568,202.978 136.72,202.978 136.871,202.978 137.022,202.978 137.173,202.893 137.325,202.893 137.476,233.334 137.627,237.586 137.778,270.238 137.93,270.238 138.081,261.735 138.232,296.512 138.383,296.512 138.535,263.86 138.686,259.609 138.837,260.969 138.988,230.783 139.14,230.783 139.291,230.868 139.442,230.783 139.593,230.783 139.745,192.605 139.896,240.392 140.047,240.392 140.198,282.142 140.35,251.701 140.501,209.951 140.652,243.283 140.803,298.638 140.954,318.96 141.106,351.612 141.257,329.504 141.408,309.182 141.559,309.182 141.711,317.685 141.862,269.898 142.013,261.394 142.164,237.416 142.316,275.595 142.467,275.68 142.618,275.595 142.769,275.595 142.921,275.595 143.072,242.943 143.223,266.921 143.374,266.921 143.526,271.258 143.677,237.926 143.828,237.926 143.979,233.589 144.131,198.812 144.282,174.833 144.433,205.274 144.584,174.833 144.736,174.833 144.887,205.274 145.038,205.274 145.189,225.597 145.341,225.597 145.492,224.236 145.643,225.597 145.794,225.597 145.946,234.1 146.097,256.208 146.248,256.293 146.399,280.271 146.55,280.271 146.702,278.911 146.853,278.911 147.004,283.162 147.155,227.807 147.307,256.038 147.458,257.398 147.609,292.176 147.76,261.735 147.912,261.735 148.063,317.09 148.214,347.53 148.365,347.53 148.517,317.09 148.668,312.838 148.819,312.838 148.97,312.838 149.122,312.838 149.273,345.49 149.424,312.838 149.575,311.478 149.727,311.478 149.878,311.478 150.029,291.155 150.18,262.925 150.332,240.817 150.483,240.817 150.634,202.638 150.785,203.999 150.937,226.107 151.088,226.107 151.239,256.293 151.39,256.293 151.542,256.293 151.693,256.293 151.844,289.625 151.995,309.947 152.147,289.625 152.298,293.961 152.449,293.961 152.6,292.601 152.752,237.246 152.903,237.161 153.054,238.521 153.205,296.597 153.356,295.237 153.508,295.237 153.659,299.488 153.81,295.152 153.961,295.152 154.113,271.173 154.264,213.097 154.415,179.765 154.566,149.579 154.718,114.802 154.869,152.98 155.02,114.802 155.171,153.491 155.323,153.491 155.474,153.491 155.625,157.827 155.776,119.138 155.928,110.635 156.079,111.996 156.23,146.773 156.381,146.773 156.533,111.996 156.684,120.499 156.835,120.499 156.986,120.499 157.138,116.162 157.289,120.499 157.44,116.247 157.591,116.247 157.743,116.332 157.894,116.332 158.045,116.332 158.196,94.2244 158.348,94.2244 158.499,126.876 158.65,126.876 158.801,126.876 158.953,126.876 159.104,126.876 159.255,126.876 159.406,131.128 159.557,131.128 159.709,151.45 159.86,150.089 160.011,145.838 160.162,141.501 160.314,145.838 160.465,113.186 160.616,104.683 160.767,138.015 160.919,185.802 161.07,138.015 161.221,138.015 161.372,176.194 161.524,155.872 161.675,122.54 161.826,146.518 161.977,146.518 162.129,146.518 162.28,146.518 162.431,146.518 162.582,146.518 162.734,122.54 162.885,122.54 163.036,161.228 163.187,162.589 163.339,158.252 163.49,158.167 163.641,188.608 163.792,188.608 163.944,188.608 164.095,150.43 164.246,150.43 164.397,150.43 164.549,208.505 164.7,208.591 164.851,207.23 165.002,207.23 165.153,207.23 165.305,149.154 165.456,149.154 165.607,153.491 165.758,153.491 165.91,153.491 166.061,123.05 166.212,118.713 166.363,118.628 166.515,119.989 166.666,119.989 166.817,124.325 166.968,124.325 167.12,124.325 167.271,132.828 167.422,165.48 167.573,126.791 167.725,184.867 167.876,206.975 168.027,235.205 168.178,235.29 168.33,235.29 168.481,235.29 168.632,235.205 168.783,235.29 168.935,235.29 169.086,207.06 169.237,207.06 169.388,207.06 169.54,206.975 169.691,206.975 169.842,206.975 169.993,206.975 170.145,211.226 170.296,211.311 170.447,209.951 170.598,209.951 170.75,209.951 170.901,209.951 171.052,209.951 171.203,209.866 171.355,211.226 171.506,202.723 171.657,250.511 171.808,250.511 171.959,249.15 172.111,249.15 172.262,249.15 172.413,249.15 172.564,257.653 172.716,209.866 172.867,238.096 173.018,238.181 173.169,233.845 173.321,233.845 173.472,235.205 173.623,239.542 173.774,263.52 173.926,239.542 174.077,211.311 174.228,209.951 174.379,209.951 174.531,209.951 174.682,205.614 174.833,205.614 174.984,205.614 175.136,147.539 175.287,147.539 175.438,147.539 175.589,147.539 175.741,147.539 175.892,171.517 176.043,171.517 176.194,171.517 176.346,171.517 176.497,171.432 176.648,172.793 176.799,172.793 176.951,164.29 177.102,192.52 177.253,192.52 177.404,192.52 177.556,159.868 177.707,159.868 177.858,159.868 178.009,207.655 178.16,207.655 178.312,207.655 178.463,237.841 178.614,237.841 178.765,237.841 178.917,237.841 179.068,237.841 179.219,279.591 179.37,278.231 179.522,278.316 179.673,282.652 179.824,278.316 179.975,248.13 180.127,248.13 180.278,248.13 180.429,248.13 180.58,248.13 180.732,248.045 180.883,224.066 181.034,232.569 181.185,232.569 181.337,184.782 181.488,208.761 181.639,208.761 181.79,208.761 181.942,204.509 182.093,208.761 182.244,208.761 182.395,208.761 182.547,208.761 182.698,200.258 182.849,200.258 183,204.594 183.152,204.594 183.303,213.097 183.454,213.097 183.605,184.867 183.757,184.867 183.908,184.867 184.059,184.867 184.21,143.117 184.361,143.202 184.513,143.117 184.664,143.117 184.815,143.117 184.966,138.865 185.118,130.362 185.269,130.362 185.42,163.014 185.571,163.014 185.723,167.266 185.874,167.266 186.025,163.014 186.176,167.266 186.328,134.614 186.479,134.614 186.63,134.614 186.781,134.614 186.933,134.614 187.084,134.699 187.235,134.699 187.386,134.699 187.538,134.614 187.689,164.8 187.84,140.821 187.991,140.821 188.143,140.821 188.294,169.051 188.445,138.865 188.596,138.865 188.748,171.517 188.899,149.409 189.05,145.073 189.201,145.073 189.353,145.073 189.504,145.073 189.655,175.258 189.806,175.258 189.958,176.619 190.109,146.433 190.26,142.182 190.411,142.182 190.562,142.267 190.714,142.267 190.865,146.603 191.016,146.518 191.167,146.518 191.319,146.518 191.47,179.85 191.621,179.85 191.772,179.85 191.924,188.353 192.075,188.353 192.226,155.701 192.377,159.953 192.529,159.953 192.68,155.616 192.831,155.616 192.982,151.365 193.134,151.365 193.285,151.365 193.436,151.45 193.587,123.22 193.739,89.8878 193.89,81.3847 194.041,85.6362 194.192,85.6362 194.344,133.423 194.495,141.927 194.646,140.566 194.797,160.888 194.949,113.101 195.1,113.101 195.251,135.209 195.402,135.209 195.554,135.124 195.705,139.461 195.856,139.546 196.007,169.987 196.159,139.546 196.31,139.546 196.461,139.546 196.612,139.546 196.763,177.724 196.915,179.085 197.066,174.748 197.217,174.748 197.368,174.748 197.52,232.824 197.671,232.824 197.822,210.716 197.973,152.64 198.125,156.977 198.276,156.977 198.427,156.892 198.578,156.892 198.73,148.389 198.881,148.389 199.032,148.389 199.183,144.137 199.335,144.137 199.486,144.222 199.637,144.222 199.788,152.725 199.94,132.403 200.091,94.2244 200.242,85.7213 200.393,85.7213 200.545,81.3847 200.696,81.3847 200.847,81.3847 200.998,81.3847 201.15,81.3847 201.301,81.3847 201.452,123.135 201.603,123.135 201.755,123.135 201.906,123.135 202.057,123.135 202.208,127.471 202.36,127.471 202.511,127.471 202.662,127.471 202.813,127.471 202.964,127.471 203.116,127.471 203.267,182.826 203.418,182.826 203.569,182.826 203.721,182.826 203.872,187.078 204.023,182.826 204.174,182.826 204.326,182.826 204.477,141.076 204.628,141.076 204.779,141.076 204.931,141.076 205.082,141.076 205.233,145.328 205.384,141.076 205.536,141.076 205.687,136.74 205.838,136.74 205.989,136.74 206.141,136.74 206.292,141.076 206.443,141.076 206.594,141.076 206.746,140.991 206.897,140.991 207.048,140.991 207.199,141.076 207.351,141.076 207.502,141.076 207.653,141.076 207.804,141.076 207.956,141.076 208.107,141.076 208.258,179.765 208.409,175.429 208.561,179.68 208.712,140.991 208.863,85.6362 209.014,85.5512 209.165,85.5512 209.317,89.8878 209.468,89.8878 209.619,85.5512 209.77,85.5512 209.922,85.5512 210.073,85.5512 210.224,84.1907 210.375,84.1907 210.527,84.1907 210.678,108.169 210.829,108.169 210.98,103.918 211.132,103.918 211.283,103.918 211.434,103.918 211.585,105.278 211.737,105.278 211.888,160.633 212.039,160.633 212.19,160.633 212.342,160.633 212.493,160.718 212.644,160.718 212.795,194.05 212.947,160.718 213.098,160.718 213.249,160.718 213.4,160.633 213.552,160.633 213.703,160.633 213.854,160.633 214.005,160.633 214.157,105.278 214.308,105.278 214.459,105.278 214.61,105.278 214.762,105.278 214.913,105.278 215.064,105.278 215.215,105.278 215.366,109.615 215.518,109.7 215.669,109.7 215.82,109.7 215.971,85.7213 216.123,106.044 216.274,106.044 216.425,110.295 216.576,110.295 216.728,110.295 216.879,110.295 217.03,110.295 217.181,143.627 217.333,143.627 217.484,143.627 217.635,143.627 217.786,143.627 217.938,176.279 218.089,176.279 218.24,176.279 218.391,176.279 218.543,176.279 218.694,176.279 218.845,176.194 218.996,155.872 219.148,155.872 219.299,155.872 219.45,155.872 219.601,177.979 219.753,208.165 219.904,208.25 220.055,208.25 220.206,175.599 220.358,175.599 220.509,199.577 220.66,199.492 220.811,195.156 220.963,195.156 221.114,195.156 221.265,195.156 221.416,190.904 221.567,160.718 221.719,160.718 221.87,160.718 222.021,160.718 222.172,165.055 222.324,163.694 222.475,163.694 222.626,163.694 222.777,130.362 222.929,134.614 223.08,134.614 223.231,134.614 223.382,112.506 223.534,112.591 223.685,113.951 223.836,113.951 223.987,169.306 224.139,207.485 224.29,207.485 224.441,169.306 224.592,164.97 224.744,164.97 224.895,163.609 225.046,108.254 225.197,150.004 225.349,154.341 225.5,154.341 225.651,154.341 225.802,154.341 225.954,112.591 226.105,108.339 226.256,104.003 226.407,104.003 226.559,104.003 226.71,112.506 226.861,112.506 227.012,104.003 227.164,104.003 227.315,126.111 227.466,126.111 227.617,134.614 227.768,110.635 227.92,102.132 228.071,102.132 228.222,103.493 228.373,102.132 228.525,102.132 228.676,102.132 228.827,102.132 228.978,102.132 229.13,102.132 229.281,102.132 229.432,102.132 229.583,102.132 229.735,106.384 229.886,84.2758 230.037,84.2758 230.188,84.2758 230.34,84.2758 230.491,85.6362 230.642,85.6362 230.793,85.6362 230.945,85.6362 231.096,85.6362 231.247,85.6362 231.398,85.6362 231.55,85.6362 231.701,85.6362 231.852,85.6362 232.003,85.6362 232.155,94.1393 232.306,94.1393 232.457,94.1393 232.608,94.0543 232.76,124.24 232.911,124.24 233.062,124.24 233.213,124.24 233.365,124.24 233.516,124.24 233.667,152.47 233.818,152.47 233.969,148.219 234.121,148.219 234.272,118.033 234.423,118.033 234.574,118.033 234.726,122.284 234.877,94.0543 235.028,94.0543 235.179,94.0543 235.331,124.24 235.482,124.24 235.633,124.24 235.784,124.24 235.936,124.24 236.087,124.325 236.238,124.24 236.389,94.0543 236.541,94.0543 236.692,94.0543 236.843,122.284 236.994,122.284 237.146,122.284 237.297,126.621 237.448,125.26 237.599,121.009 237.751,125.26 237.902,125.26 238.053,125.26 238.204,126.621 238.356,122.284 238.507,122.284 238.658,122.369 238.809,122.369 238.961,118.118 239.112,122.369 239.263,126.706 239.414,122.455 239.565,122.369 239.717,122.369 239.868,122.369 240.019,144.477 240.17,144.477 240.322,140.141 240.473,140.141 240.624,140.141 240.775,131.638 240.927,131.638 241.078,131.638 241.229,131.638 241.38,131.638 241.532,131.638 241.683,131.638 241.834,131.638 241.985,131.638 242.137,131.638 242.288,131.638 242.439,135.974 242.59,135.974 242.742,136.059 242.893,136.059 243.044,107.829 243.195,107.829 243.347,107.829 243.498,107.744 243.649,107.744 243.8,107.829 243.952,116.332 244.103,116.332 244.254,116.332 244.405,116.332 244.557,116.332 244.708,120.584 244.859,120.584 245.01,119.223 245.162,119.223 245.313,119.223 245.464,119.223 245.615,119.223 245.767,119.223 245.918,119.223 246.069,119.223 246.22,119.223 246.371,110.72 246.523,110.72 246.674,110.72 246.825,110.72 246.976,88.6123 247.128,110.72 247.279,110.72 247.43,110.72 247.581,110.72 247.733,110.72 247.884,110.72 248.035,110.72 248.186,110.72 248.338,110.72 248.489,119.223 248.64,119.223 248.791,114.972 248.943,114.972 249.094,114.972 249.245,114.972 249.396,114.972 249.548,114.972 249.699,114.972 249.85,114.972 250.001,116.332 250.153,94.2244 250.304,94.2244 250.455,94.2244 250.606,94.2244 250.758,94.2244 250.909,94.2244 251.06,94.2244 251.211,94.2244 251.363,94.2244 251.514,94.2244 251.665,94.2244 251.816,94.2244 251.967,94.2244 252.119,94.2244 252.27,94.2244 252.421,94.2244 252.572,94.2244 252.724,94.2244 252.875,89.8878 253.026,89.8878 253.177,89.8878 253.329,89.8878 253.48,94.2244 253.631,94.2244 253.782,124.665 253.934,120.329 254.085,111.826 254.236,111.826 254.387,110.465 254.539,138.695 254.69,140.056 254.841,109.615 254.992,109.615 255.144,109.615 255.295,109.615 255.446,109.615 255.597,118.118 255.749,118.118 255.9,116.757 256.051,116.757 256.202,116.757 256.354,116.757 256.505,108.254 256.656,108.254 256.807,112.591 256.959,112.506 257.11,134.614 257.261,134.614 257.412,134.614 257.564,134.614 257.715,134.614 257.866,134.614 258.017,134.614 258.169,106.384 258.32,106.384 258.471,106.384 258.622,106.384 258.773,106.384 258.925,106.384 259.076,106.384 259.227,106.384 259.378,106.384 259.53,106.384 259.681,106.384 259.832,110.635 259.983,110.635 260.135,88.5273 260.286,88.5273 260.437,88.5273 260.588,88.5273 260.74,84.1907 260.891,84.1907 261.042,84.1907 261.193,84.1907 261.345,84.1907 261.496,84.1907 261.647,84.1907 261.798,84.1907 261.95,88.5273 262.101,88.5273 262.252,88.5273 262.403,88.5273 262.555,88.5273 262.706,88.5273 262.857,88.5273 263.008,88.5273 263.16,84.2758 263.311,84.2758 263.462,84.2758 263.613,84.2758 263.765,84.2758 263.916,84.2758 264.067,84.2758 264.218,84.2758 264.37,84.2758 264.521,84.2758 264.672,84.2758 264.823,84.2758 264.974,84.3608 265.126,84.3608 265.277,88.6123 265.428,88.6123 265.579,88.6123 265.731,89.9728 265.882,89.9728 266.033,89.9728 266.184,85.7213 266.336,85.6362 266.487,85.6362 266.638,85.6362 266.789,85.7213 266.941,85.7213 267.092,81.3847 267.243,81.3847 267.394,85.6362 267.546,81.3847 267.697,81.3847 267.848,81.3847 267.999,89.8878 268.151,94.2244 268.302,94.2244 268.453,94.2244 268.604,94.2244 268.756,94.2244 268.907,85.7213 269.058,85.7213 269.209,84.3608 269.361,84.3608 269.512,84.3608 269.663,84.2758 269.814,84.3608 269.966,84.3608 270.117,84.3608 270.268,84.3608 270.419,84.3608 270.57,84.3608 270.722,84.3608 270.873,84.3608 271.024,80.0242 271.175,80.0242 271.327,81.3847 271.478,81.3847 271.629,89.8878 271.78,89.8878 271.932,89.8878 272.083,89.8878 272.234,94.2244 272.385,94.2244 272.537,94.2244 272.688,89.8878 272.839,89.8878 272.99,89.8878 273.142,89.8878 273.293,81.3847 273.444,89.8878 273.595,88.5273 273.747,88.5273 273.898,88.5273 274.049,88.5273 274.2,88.5273 274.352,88.5273 274.503,92.8639 274.654,92.8639 274.805,92.8639 274.957,92.8639 275.108,94.2244 275.259,94.2244 275.41,92.8639 275.562,92.8639 275.713,92.8639 275.864,92.8639 276.015,134.614 276.167,134.614 276.318,134.614 276.469,134.614 276.62,134.614 276.771,134.529 276.923,134.529 277.074,134.529 277.225,134.529 277.376,134.529 277.528,130.192 277.679,134.529 277.83,134.529 277.981,126.026 278.133,126.026 278.284,126.111 278.435,126.111 278.586,126.111 278.738,126.111 278.889,127.471 279.04,127.471 279.191,127.471 279.343,127.471 279.494,127.471 279.645,127.471 279.796,127.471 279.948,126.111 280.099,126.111 280.25,126.111 280.401,126.026 280.553,126.026 280.704,126.026 280.855,126.026 281.006,126.026 281.158,126.026 281.309,126.026 281.46,126.026 281.611,130.277 281.763,88.5273 281.914,88.5273 282.065,88.5273 282.216,88.5273 282.368,88.5273 282.519,88.6123 282.67,88.6123 282.821,88.6123 282.973,88.6123 283.124,88.6123 283.275,88.6123 283.426,88.5273 283.577,88.5273 283.729,88.5273 283.88,88.5273 284.031,88.5273 284.182,97.0303 284.334,97.0303 284.485,97.0303 284.636,88.5273 284.787,88.5273 284.939,88.5273 285.09,88.5273 285.241,88.5273 285.392,88.5273 285.544,88.5273 285.695,88.5273 285.846,88.5273 285.997,88.5273 286.149,84.1907 286.3,84.1907 286.451,84.1907 286.602,84.1907 286.754,84.1907 286.905,85.5512 287.056,85.5512 287.207,85.5512 287.359,85.5512 287.51,85.5512 287.661,85.5512 287.812,85.6362 287.964,85.6362 288.115,85.6362 288.266,85.6362 288.417,85.6362 288.569,85.6362 288.72,85.6362 288.871,85.6362 289.022,84.2758 289.173,84.1907 289.325,84.1907 289.476,84.1907 289.627,84.1907 289.778,84.1907 289.93,84.2758 290.081,84.2758 290.232,84.2758 290.383,84.2758 290.535,84.2758 290.686,80.0242 290.837,80.0242 290.988,80.0242 291.14,80.0242 291.291,80.0242 291.442,80.0242 291.593,80.0242 291.745,79.9392 291.896,79.9392 292.047,79.9392 292.198,79.9392 292.35,79.9392 292.501,79.9392 292.652,80.0242 292.803,80.0242 292.955,84.2758 293.106,84.2758 293.257,84.2758 293.408,84.2758 293.56,84.2758 293.711,84.2758 293.862,84.2758 294.013,84.2758 294.165,84.2758 294.316,84.2758 294.467,84.2758 294.618,84.2758 294.77,84.1907 294.921,88.5273 295.072,88.5273 295.223,88.5273 295.375,88.6123 295.526,88.6123 295.677,88.6123 295.828,88.5273 295.979,88.5273 296.131,88.5273 296.282,88.5273 296.433,88.5273 296.584,88.5273 296.736,88.5273 296.887,88.5273 297.038,97.0303 297.189,97.0303 297.341,97.0303 297.492,97.0303 297.643,97.0303 297.794,97.0303 297.946,97.0303 298.097,92.6938 298.248,92.6938 298.399,92.6938 298.551,92.6938 298.702,94.0543 298.853,94.0543 299.004,94.0543 299.156,94.0543 299.307,94.0543 299.458,94.0543 299.609,94.0543 299.761,89.8028 299.912,88.4423 300.063,89.8028 300.214,89.8028 300.366,89.8028 300.517,89.8878 300.668,89.8878 300.819,89.8878 300.971,89.8028 301.122,89.8028 301.273,89.8028 301.424,89.8028 301.576,89.8028 301.727,89.8028 301.878,89.8028 302.029,89.8028 302.18,89.8028 302.332,89.8028 302.483,89.8028 302.634,89.8028 302.785,89.8878 302.937,89.8878 303.088,89.8878 303.239,94.2244 303.39,94.2244 303.542,94.2244 303.693,94.2244 303.844,92.8639 303.995,92.8639 304.147,92.8639 304.298,92.8639 304.449,84.3608 304.6,80.0242 304.752,80.0242 304.903,80.0242 305.054,79.9392 305.205,79.9392 305.357,79.9392 305.508,79.9392 305.659,79.9392 305.81,79.9392 305.962,79.9392 306.113,79.9392 306.264,79.9392 306.415,79.9392 306.567,79.9392 306.718,79.9392 306.869,79.9392 307.02,100.262 307.172,100.262 307.323,104.513 307.474,104.513 307.625,104.513 307.776,104.513 307.928,104.513 308.079,104.513 308.23,104.513 308.381,104.513 308.533,104.513 308.684,104.513 308.835,104.513 308.986,104.513 309.138,104.513 309.289,104.513 309.44,104.513 309.591,104.513 309.743,104.513 309.894,104.513 310.045,84.1907 310.196,84.1907 310.348,84.1907 310.499,84.1907 310.65,84.1907 310.801,84.2758 310.953,84.2758 311.104,80.0242 311.255,80.0242 311.406,80.0242 311.558,80.0242 311.709,80.0242 311.86,80.0242 312.011,80.0242 312.163,80.0242 312.314,80.0242 312.465,80.0242 312.616,80.0242 312.768,80.0242 312.919,80.0242 313.07,79.9392 313.221,79.9392 313.373,79.9392 313.524,79.9392 313.675,79.9392 313.826,79.9392 313.978,79.9392 314.129,88.4423 314.28,88.4423 314.431,88.4423 314.582,88.4423 314.734,92.7789 314.885,92.7789 315.036,92.7789 315.187,92.7789 315.339,92.7789 315.49,92.7789 315.641,92.7789 315.792,94.1393 315.944,94.2244 316.095,94.2244 316.246,94.2244 316.397,92.8639 316.549,92.8639 316.7,92.8639 316.851,92.7789 317.002,92.7789 317.154,92.7789 317.305,92.7789 317.456,92.7789 317.607,92.7789 317.759,92.8639 317.91,92.8639 318.061,92.8639 318.212,92.8639 318.364,92.8639 318.515,92.8639 318.666,92.8639 318.817,92.8639 318.969,92.8639 319.12,97.1154 319.271,97.1154 319.422,97.1154 319.574,97.1154 319.725,97.1154 319.876,92.8639 320.027,92.8639 320.179,92.8639 320.33,92.7789 320.481,92.7789 320.632,92.7789 320.783,92.7789 320.935,92.7789 321.086,92.7789 321.237,92.7789 321.388,92.7789 321.54,92.7789 321.691,92.7789 321.842,92.7789 321.993,84.2758 322.145,84.2758 322.296,84.2758 322.447,84.2758 322.598,84.3608 322.75,84.3608 322.901,85.7213 323.052,85.7213 323.203,85.7213 323.355,85.7213 323.506,85.7213 323.657,85.7213 323.808,85.7213 323.96,85.7213 324.111,85.7213 324.262,85.7213 324.413,85.7213 324.565,85.7213 324.716,85.7213 324.867,85.7213 325.018,84.3608 325.17,84.3608 325.321,84.3608 325.472,84.3608 325.623,84.3608 325.775,84.3608 325.926,84.2758 326.077,84.2758 326.228,84.2758 326.379,84.2758 326.531,84.2758 326.682,84.2758 326.833,84.2758 326.984,84.2758 327.136,84.2758 327.287,84.2758 327.438,84.2758 327.589,84.2758 327.741,84.2758 327.892,84.2758 328.043,84.2758 328.194,84.2758 328.346,84.2758 328.497,79.9392 328.648,80.0242 328.799,80.0242 328.951,80.0242 329.102,80.0242 329.253,80.0242 329.404,80.0242 329.556,80.0242 329.707,80.0242 329.858,81.3847 330.009,81.3847 330.161,81.3847 330.312,81.3847 330.463,81.3847 330.614,81.3847 330.766,81.2997 330.917,85.5512 331.068,85.5512 331.219,85.5512 331.371,85.5512 331.522,85.5512 331.673,85.5512 331.824,85.5512 331.976,85.5512 332.127,85.5512 332.278,85.6362 332.429,85.6362 332.581,85.6362 332.732,85.6362 332.883,85.6362 333.034,85.6362 333.185,85.5512 333.337,85.5512 333.488,85.6362 333.639,81.3847 333.79,81.3847 333.942,81.3847 334.093,81.3847 334.244,81.3847 334.395,81.3847 334.547,81.3847 334.698,85.6362 334.849,85.6362 335,85.6362 335.152,85.6362 335.303,85.6362 335.454,85.6362 335.605,84.2758 335.757,84.2758 335.908,84.2758 336.059,84.2758 336.21,84.2758 336.362,84.2758 336.513,84.1907 336.664,84.1907 336.815,84.1907 336.967,84.1907 337.118,84.1907 337.269,84.1907 337.42,84.1907 337.572,84.1907 337.723,84.1907 337.874,79.9392 338.025,79.9392 338.177,79.9392 338.328,84.1907 338.479,84.1907 338.63,84.1907 338.781,84.1907 338.933,84.1907 339.084,84.1907 339.235,84.1907 339.386,84.1907 339.538,84.1907 339.689,84.1907 339.84,84.1907 339.991,84.1907 340.143,84.1907 340.294,84.2758 340.445,84.2758 340.596,84.2758 340.748,84.2758 340.899,84.2758 341.05,84.2758 341.201,84.2758 341.353,84.2758 341.504,84.2758 341.655,84.2758 341.806,84.2758 341.958,84.2758 342.109,84.2758 342.26,84.2758 342.411,84.2758 342.563,84.2758 342.714,84.2758 342.865,84.2758 343.016,84.2758 343.168,84.2758 343.319,80.0242 343.47,80.0242 343.621,80.0242 343.773,80.0242 343.924,80.0242 344.075,80.0242 344.226,80.0242 344.378,80.0242 344.529,80.0242 344.68,80.0242 344.831,80.0242 344.983,80.0242 345.134,80.0242 345.285,80.0242 345.436,80.0242 345.587,80.0242 345.739,80.0242 345.89,80.0242 346.041,80.0242 346.192,80.0242 346.344,80.0242 346.495,80.0242 346.646,80.0242 346.797,80.0242 346.949,81.3847 347.1,81.3847 347.251,81.3847 347.402,81.3847 347.554,81.2997 347.705,81.3847 347.856,81.3847 348.007,85.6362 348.159,85.6362 348.31,85.6362 348.461,85.6362 348.612,81.3847 348.764,81.3847 348.915,81.3847 349.066,81.3847 349.217,81.3847 349.369,81.3847 349.52,81.3847 349.671,81.3847 349.822,81.3847 349.974,81.3847 350.125,81.3847 350.276,81.3847 350.427,81.3847 350.579,81.3847 350.73,81.3847 350.881,81.3847 351.032,81.3847 351.184,81.3847 351.335,81.3847 351.486,81.3847 351.637,81.3847 351.788,81.3847 351.94,81.3847 352.091,81.3847 352.242,81.3847 352.393,81.3847 352.545,81.3847 352.696,81.3847 352.847,81.3847 352.998,80.0242 353.15,80.0242 353.301,80.0242 353.452,84.2758 353.603,84.2758 353.755,85.6362 353.906,85.6362 354.057,85.6362 354.208,85.6362 354.36,85.6362 354.511,85.6362 354.662,85.6362 354.813,85.6362 354.965,85.6362 355.116,85.5512 355.267,81.2997 355.418,81.2997 355.57,81.3847 355.721,81.2997 355.872,81.2997 356.023,79.9392 356.175,79.9392 356.326,79.9392 356.477,79.9392 356.628,79.9392 356.78,79.9392 356.931,81.2997 357.082,81.2997 357.233,81.2997 357.384,81.2997 357.536,81.2997 357.687,81.2997 357.838,81.2997 357.989,81.2997 358.141,81.2997 358.292,81.2997 358.443,81.2997 358.594,81.2997 358.746,81.2997 358.897,81.2997 359.048,81.3847 359.199,85.7213 359.351,89.9728 359.502,89.9728 359.653,89.9728 359.804,89.8878 359.956,89.8878 360.107,89.8878 360.258,89.8878 360.409,89.8878 360.561,89.8878 360.712,85.5512 360.863,85.5512 361.014,85.5512 361.166,85.5512 361.317,85.5512 361.468,85.5512 361.619,85.5512 361.771,85.5512 361.922,81.2997 362.073,81.2997 362.224,81.2997 362.376,81.2997 362.527,81.2997 362.678,81.2997 362.829,81.2997 362.981,81.2997 363.132,81.2997 363.283,81.2997 363.434,81.2997 363.586,81.2997 363.737,81.2997 363.888,81.2997 364.039,81.2997 364.19,81.2997 364.342,81.2997 364.493,81.3847 364.644,81.2997 364.795,81.2997 364.947,81.2997 365.098,81.2997 365.249,81.2997 365.4,81.3847 365.552,81.3847 365.703,81.3847 365.854,81.3847 366.005,81.3847 366.157,81.3847 366.308,81.3847 366.459,81.3847 366.61,81.3847 366.762,89.8878 366.913,89.8878 367.064,89.8878 367.215,89.8878 367.367,89.8878 367.518,89.8878 367.669,89.8878 367.82,89.8878 367.972,89.8878 368.123,89.8878 368.274,81.3847 368.425,81.3847 368.577,81.3847 368.728,81.3847 368.879,80.0242 369.03,80.0242 369.182,80.0242 369.333,80.0242 369.484,80.0242 369.635,80.0242 369.786,80.0242 369.938,80.0242 370.089,80.0242 370.24,80.0242 370.391,80.0242 370.543,80.0242 370.694,80.0242 370.845,80.0242 370.996,80.0242 371.148,80.0242 371.299,80.0242 371.45,80.0242 371.601,80.0242 371.753,80.0242 371.904,80.0242 372.055,80.0242 372.206,80.0242 372.358,80.0242 372.509,80.0242 372.66,80.0242 372.811,80.0242 372.963,80.0242 373.114,80.0242 373.265,80.0242 373.416,81.3847 373.568,81.3847 373.719,81.3847 373.87,80.0242 374.021,80.0242 374.173,80.0242 374.324,80.0242 374.475,80.0242 374.626,80.0242 374.778,80.0242 374.929,80.0242 375.08,80.0242 375.231,80.0242 375.383,80.0242 375.534,80.0242 375.685,81.3847 375.836,81.3847 375.987,80.0242 376.139,80.0242 376.29,80.0242 376.441,80.0242 376.592,80.0242 376.744,80.0242 376.895,80.0242 377.046,80.0242 377.197,80.0242 377.349,80.0242 377.5,80.0242 377.651,80.0242 377.802,80.0242 377.954,80.0242 378.105,80.0242 378.256,80.0242 378.407,80.0242 378.559,80.0242 378.71,80.0242 378.861,80.0242 379.012,80.0242 379.164,80.0242 379.315,80.0242 379.466,80.0242 379.617,80.0242 379.769,80.0242 379.92,80.0242 380.071,79.9392 380.222,79.9392 380.374,79.9392 380.525,79.9392 380.676,79.9392 380.827,79.9392 380.979,79.9392 381.13,79.9392 381.281,79.9392 381.432,79.9392 381.584,79.9392 381.735,79.9392 381.886,79.9392 382.037,79.9392 382.189,79.9392 382.34,79.9392 382.491,80.0242 382.642,80.0242 382.793,80.0242 382.945,80.0242 383.096,80.0242 383.247,80.0242 383.398,80.0242 383.55,80.0242 383.701,80.0242 383.852,80.0242 384.003,80.0242 384.155,80.0242 384.306,80.0242 384.457,79.9392 384.608,79.9392 384.76,79.9392 384.911,79.9392 385.062,79.9392 385.213,81.2997 385.365,81.3847 385.516,81.3847 385.667,81.3847 385.818,81.3847 385.97,81.3847 386.121,81.3847 386.272,81.3847 386.423,80.0242 386.575,79.9392 386.726,79.9392 386.877,79.9392 387.028,79.9392 387.18,79.9392 387.331,79.9392 387.482,79.9392 387.633,79.9392 387.785,79.9392 387.936,79.9392 388.087,79.9392 388.238,79.9392 388.389,79.9392 388.541,81.2997 388.692,81.2997 388.843,81.2997 388.994,81.2997 389.146,81.2997 389.297,81.2997 389.448,81.2997 389.599,81.2997 389.751,81.2997 389.902,81.2997 390.053,81.2997 390.204,81.2997 390.356,81.2997 390.507,81.3847 390.658,81.2997 390.809,81.2997 390.961,81.2997 391.112,81.2997 391.263,79.9392 391.414,79.9392 391.566,79.9392 391.717,79.9392 391.868,79.9392 392.019,79.9392 392.171,79.9392 392.322,79.9392 392.473,79.9392 392.624,79.9392 392.776,79.9392 392.927,79.9392 393.078,80.0242 393.229,80.0242 393.381,80.0242 393.532,80.0242 393.683,80.0242 393.834,80.0242 393.986,80.0242 394.137,80.0242 394.288,81.3847 394.439,81.2997 394.591,81.2997 394.742,81.2997 394.893,81.2997 395.044,81.3847 395.195,81.3847 395.347,81.3847 395.498,81.3847 395.649,81.2997 395.8,81.2997 395.952,81.2997 396.103,81.2997 396.254,81.2997 396.405,81.2997 396.557,81.2997 396.708,81.3847 396.859,81.3847 397.01,81.3847 397.162,81.3847 397.313,81.3847 397.464,81.3847 397.615,81.2997 397.767,81.2997 397.918,81.2997 398.069,81.2997 398.22,81.2997 398.372,81.2997 398.523,81.2997 398.674,79.9392 398.825,79.9392 398.977,79.9392 399.128,79.9392 399.279,79.9392 399.43,79.9392 399.582,79.9392 399.733,79.9392 399.884,79.9392 400.035,79.9392 400.187,79.9392 400.338,79.9392 400.489,79.9392 400.64,79.9392 400.792,80.0242 400.943,80.0242 401.094,80.0242 401.245,80.0242 401.396,80.0242 401.548,80.0242 401.699,80.0242 401.85,80.0242 402.001,80.0242 402.153,80.0242 402.304,80.0242 402.455,80.0242 402.606,80.0242 402.758,80.0242 402.909,80.0242 403.06,80.0242 403.211,80.0242 403.363,80.0242 403.514,80.0242 403.665,80.0242 403.816,80.0242 403.968,80.0242 404.119,80.0242 404.27,80.0242 404.421,80.0242 404.573,80.0242 404.724,80.0242 404.875,80.0242 405.026,80.0242 405.178,79.9392 405.329,79.9392 405.48,79.9392 405.631,79.9392 405.783,79.9392 405.934,79.9392 406.085,80.0242 406.236,80.0242 406.388,80.0242 406.539,80.0242 406.69,80.0242 406.841,80.0242 406.992,79.9392 407.144,79.9392 407.295,79.9392 407.446,80.0242 407.597,80.0242 407.749,80.0242 407.9,80.0242 408.051,80.0242 408.202,80.0242 408.354,80.0242 408.505,80.0242 408.656,80.0242 408.807,80.0242 408.959,80.0242 409.11,80.0242 409.261,80.0242 409.412,80.0242 409.564,80.0242 409.715,80.0242 409.866,80.0242 410.017,80.0242 410.169,80.0242 410.32,80.0242 410.471,80.0242 410.622,81.3847 410.774,80.0242 410.925,80.0242 411.076,80.0242 411.227,80.0242 411.379,80.0242 411.53,79.9392 411.681,79.9392 411.832,79.9392 411.984,79.9392 412.135,79.9392 412.286,79.9392 412.437,79.9392 412.589,79.9392 412.74,79.9392 412.891,79.9392 413.042,79.9392 413.194,79.9392 413.345,79.9392 413.496,79.9392 413.647,79.9392 413.798,79.9392 413.95,79.9392 414.101,79.9392 414.252,79.9392 414.403,79.9392 414.555,79.9392 414.706,79.9392 414.857,79.9392 415.008,79.9392 415.16,79.9392 415.311,79.9392 415.462,79.9392 415.613,79.9392 415.765,79.9392 415.916,79.9392 416.067,79.9392 416.218,79.9392 416.37,79.9392 416.521,79.9392 416.672,79.9392 416.823,79.9392 416.975,79.9392 417.126,79.9392 417.277,79.9392 417.428,79.9392 417.58,79.9392 417.731,79.9392 417.882,79.9392 418.033,79.9392 418.185,79.9392 418.336,79.9392 418.487,79.9392 418.638,79.9392 418.79,79.9392 418.941,79.9392 419.092,79.9392 419.243,79.9392 419.395,79.9392 419.546,79.9392 419.697,79.9392 419.848,79.9392 419.999,79.9392 420.151,79.9392 420.302,79.9392 420.453,79.9392 420.604,79.9392 420.756,79.9392 420.907,80.0242 421.058,80.0242 421.209,79.9392 421.361,79.9392 421.512,79.9392 421.663,79.9392 421.814,79.9392 421.966,79.9392 422.117,79.9392 422.268,79.9392 422.419,79.9392 422.571,79.9392 422.722,79.9392 422.873,79.9392 423.024,79.9392 423.176,79.9392 423.327,79.9392 423.478,79.9392 423.629,79.9392 423.781,79.9392 423.932,79.9392 424.083,79.9392 424.234,79.9392 424.386,79.9392 424.537,79.9392 424.688,79.9392 424.839,79.9392 424.991,79.9392 425.142,79.9392 425.293,79.9392 425.444,79.9392 425.595,79.9392 425.747,79.9392 425.898,79.9392 426.049,79.9392 426.2,79.9392 426.352,79.9392 426.503,79.9392 426.654,79.9392 426.805,80.0242 426.957,80.0242 427.108,80.0242 427.259,80.0242 427.41,80.0242 427.562,80.0242 427.713,80.0242 427.864,80.0242 428.015,80.0242 428.167,80.0242 428.318,80.0242 428.469,80.0242 428.62,80.0242 428.772,80.0242 428.923,80.0242 429.074,80.0242 429.225,80.0242 429.377,80.0242 429.528,80.0242 429.679,80.0242 429.83,80.0242 429.982,80.0242 430.133,79.9392 430.284,79.9392 430.435,79.9392 430.587,79.9392 430.738,79.9392 430.889,79.9392 431.04,79.9392 431.192,79.9392 431.343,79.9392 431.494,79.9392 431.645,79.9392 431.797,79.9392 431.948,79.9392 432.099,79.9392 432.25,79.9392 432.401,79.9392 432.553,79.9392 432.704,79.9392 432.855,80.0242 433.006,80.0242 433.158,80.0242 433.309,80.0242 433.46,80.0242 433.611,80.0242 433.763,80.0242 433.914,80.0242 434.065,80.0242 434.216,80.0242 434.368,80.0242 434.519,81.3847 434.67,81.3847 434.821,81.3847 434.973,81.3847 435.124,81.3847 435.275,81.3847 435.426,81.3847 435.578,81.3847 435.729,80.0242 435.88,80.0242 436.031,80.0242 436.183,80.0242 436.334,80.0242 436.485,80.0242 436.636,80.0242 436.788,80.0242 436.939,80.0242 437.09,80.0242 437.241,80.0242 437.393,80.0242 437.544,80.0242 437.695,80.0242 437.846,80.0242 437.997,80.0242 438.149,80.0242 438.3,84.2758 438.451,84.2758 438.602,84.2758 438.754,84.2758 438.905,84.2758 439.056,84.2758 439.207,84.2758 439.359,84.2758 439.51,84.2758 439.661,84.2758 439.812,84.1907 439.964,84.1907 440.115,84.1907 440.266,84.1907 440.417,84.1907 440.569,84.1907 440.72,84.1907 440.871,84.1907 441.022,84.1907 441.174,84.1907 441.325,84.1907 441.476,84.1907 441.627,84.1907 441.779,84.1907 441.93,84.1907 442.081,84.1907 442.232,84.1907 442.384,84.1907 442.535,84.2758 442.686,84.2758 442.837,84.2758 442.989,84.2758 443.14,84.2758 443.291,84.2758 443.442,84.2758 443.594,84.2758 443.745,84.2758 443.896,84.2758 444.047,84.2758 444.198,84.2758 444.35,84.2758 444.501,84.2758 444.652,84.2758 444.803,84.2758 444.955,84.2758 445.106,84.2758 445.257,84.2758 445.408,84.2758 445.56,84.2758 445.711,84.2758 445.862,84.2758 446.013,84.2758 446.165,84.2758 446.316,84.2758 446.467,84.2758 446.618,84.2758 446.77,84.2758 446.921,84.2758 447.072,84.2758 447.223,84.2758 447.375,84.2758 447.526,84.2758 447.677,84.2758 447.828,84.2758 447.98,84.2758 448.131,84.2758 448.282,84.2758 448.433,84.2758 448.585,84.2758 448.736,84.2758 448.887,84.2758 449.038,84.2758 449.19,84.2758 449.341,84.2758 449.492,84.2758 449.643,84.2758 449.795,84.2758 449.946,84.2758 450.097,84.2758 450.248,84.2758 450.4,84.2758 450.551,84.2758 450.702,84.2758 450.853,84.2758 451.004,84.2758 451.156,84.2758 451.307,84.2758 451.458,84.2758 451.609,84.2758 451.761,84.2758 451.912,84.1907 452.063,84.1907 452.214,84.2758 452.366,84.2758 452.517,84.2758 452.668,84.2758 452.819,84.2758 452.971,84.2758 453.122,84.2758 453.273,84.2758 453.424,84.1907 453.576,84.1907 453.727,84.1907 453.878,84.1907 454.029,84.1907 454.181,84.1907 454.332,84.2758 454.483,84.2758 454.634,84.2758 454.786,84.2758 454.937,84.2758 455.088,84.2758 455.239,84.2758 455.391,84.1907 455.542,84.1907 455.693,79.9392 455.844,79.9392 455.996,79.9392 456.147,79.9392 456.298,79.9392 456.449,79.9392 456.6,79.9392 456.752,79.9392 456.903,79.9392 457.054,79.9392 457.205,79.9392 457.357,79.9392 457.508,79.9392 457.659,79.9392 457.81,79.9392 457.962,79.9392 458.113,79.9392 458.264,79.9392 458.415,79.9392 458.567,79.9392 458.718,79.9392 458.869,79.9392 459.02,79.9392 459.172,79.9392 459.323,79.9392 459.474,79.9392 459.625,79.9392 459.777,80.0242 459.928,80.0242 460.079,80.0242 460.23,80.0242 460.382,80.0242 460.533,80.0242 460.684,80.0242 460.835,80.0242 460.987,80.0242 461.138,80.0242 461.289,80.0242 461.44,80.0242 461.592,80.0242 461.743,80.0242 461.894,80.0242 462.045,80.0242 462.197,80.0242 462.348,80.0242 462.499,80.0242 462.65,80.0242 462.802,80.0242 462.953,80.0242 463.104,80.0242 463.255,80.0242 463.406,80.0242 463.558,80.0242 463.709,80.0242 463.86,80.0242 464.011,80.0242 464.163,80.0242 464.314,80.0242 464.465,80.0242 464.616,80.0242 464.768,80.0242 464.919,80.0242 465.07,80.0242 465.221,80.0242 465.373,80.0242 465.524,80.0242 465.675,80.0242 465.826,79.9392 465.978,79.9392 466.129,79.9392 466.28,79.9392 466.431,79.9392 466.583,79.9392 466.734,79.9392 466.885,79.9392 467.036,79.9392 467.188,79.9392 467.339,79.9392 467.49,79.9392 467.641,79.9392 467.793,80.0242 467.944,80.0242 468.095,80.0242 468.246,80.0242 468.398,80.0242 468.549,79.9392 468.7,79.9392 468.851,79.9392 469.003,79.9392 469.154,79.9392 469.305,79.9392 469.456,79.9392 469.607,79.9392 469.759,79.9392 469.91,79.9392 470.061,79.9392 470.212,79.9392 470.364,79.9392 470.515,79.9392 470.666,79.9392 470.817,79.9392 470.969,79.9392 471.12,79.9392 471.271,79.9392 471.422,79.9392 471.574,79.9392 471.725,79.9392 471.876,79.9392 472.027,79.9392 472.179,79.9392 472.33,79.9392 472.481,79.9392 472.632,79.9392 472.784,79.9392 472.935,79.9392 473.086,79.9392 473.237,79.9392 473.389,79.9392 473.54,81.2997 473.691,81.2997 473.842,81.2997 473.994,81.2997 474.145,81.2997 474.296,81.2997 474.447,81.2997 474.599,81.2997 474.75,81.2997 474.901,81.2997 475.052,81.2997 475.203,79.9392 475.355,79.9392 475.506,79.9392 475.657,79.9392 475.808,79.9392 475.96,79.9392 476.111,79.9392 476.262,79.9392 476.413,79.9392 476.565,79.9392 476.716,79.9392 476.867,80.0242 477.018,80.0242 477.17,80.0242 477.321,80.0242 477.472,80.0242 477.623,80.0242 477.775,80.0242 477.926,80.0242 478.077,80.0242 478.228,80.0242 478.38,80.0242 478.531,80.0242 478.682,80.0242 478.833,80.0242 478.985,80.0242 479.136,80.0242 479.287,80.0242 479.438,80.0242 479.59,80.0242 479.741,80.0242 479.892,80.0242 480.043,80.0242 480.195,80.0242 480.346,80.0242 480.497,80.0242 480.648,79.9392 480.8,79.9392 480.951,79.9392 481.102,79.9392 481.253,79.9392 481.405,79.9392 481.556,79.9392 481.707,79.9392 481.858,79.9392 482.009,79.9392 482.161,79.9392 482.312,79.9392 482.463,79.9392 482.614,79.9392 482.766,79.9392 482.917,80.0242 483.068,80.0242 483.219,80.0242 483.371,80.0242 483.522,80.0242 483.673,80.0242 483.824,80.0242 483.976,80.0242 484.127,80.0242 484.278,80.0242 484.429,80.0242 484.581,80.0242 484.732,80.0242 484.883,80.0242 485.034,80.0242 485.186,80.0242 485.337,79.9392 485.488,79.9392 485.639,79.9392 485.791,79.9392 485.942,79.9392 486.093,79.9392 486.244,79.9392 486.396,79.9392 486.547,79.9392 486.698,79.9392 486.849,79.9392 487.001,79.9392 487.152,79.9392 487.303,79.9392 487.454,79.9392 487.605,79.9392 487.757,79.9392 487.908,79.9392 488.059,79.9392 488.21,79.9392 488.362,79.9392 488.513,79.9392 488.664,79.9392 488.815,79.9392 488.967,79.9392 489.118,79.9392 489.269,79.9392 489.42,79.9392 489.572,79.9392 489.723,79.9392 489.874,79.9392 490.025,79.9392 490.177,79.9392 490.328,79.9392 490.479,79.9392 490.63,79.9392 490.782,79.9392 490.933,79.9392 491.084,79.9392 491.235,79.9392 491.387,79.9392 491.538,79.9392 491.689,79.9392 491.84,79.9392 491.992,79.9392 492.143,79.9392 492.294,79.9392 492.445,79.9392 492.597,79.9392 492.748,79.9392 492.899,79.9392 493.05,79.9392 493.202,79.9392 493.353,79.9392 493.504,79.9392 493.655,80.0242 493.806,80.0242 493.958,80.0242 494.109,80.0242 494.26,80.0242 494.411,80.0242 494.563,80.0242 494.714,80.0242 494.865,80.0242 495.016,80.0242 495.168,80.0242 495.319,80.0242 495.47,80.0242 495.621,80.0242 495.773,80.0242 495.924,80.0242 496.075,80.0242 496.226,80.0242 496.378,80.0242 496.529,80.0242 496.68,80.0242 496.831,80.0242 496.983,80.0242 497.134,80.0242 497.285,80.0242 497.436,79.9392 497.588,79.9392 497.739,80.0242 497.89,80.0242 498.041,80.0242 498.193,80.0242 498.344,80.0242 498.495,80.0242 498.646,79.9392 498.798,79.9392 498.949,79.9392 499.1,79.9392 499.251,79.9392 499.402,79.9392 499.554,79.9392 499.705,79.9392 499.856,79.9392 500.008,79.9392 500.159,79.9392 500.31,79.9392 500.461,79.9392 500.612,79.9392 500.764,79.9392 500.915,79.9392 501.066,79.9392 501.217,79.9392 501.369,79.9392 501.52,79.9392 501.671,79.9392 501.822,79.9392 501.974,79.9392 502.125,79.9392 502.276,79.9392 502.427,79.9392 502.579,79.9392 502.73,79.9392 502.881,79.9392 503.032,79.9392 503.184,80.0242 503.335,80.0242 503.486,80.0242 503.637,80.0242 503.789,80.0242 503.94,80.0242 504.091,80.0242 504.242,80.0242 504.394,80.0242 504.545,80.0242 504.696,80.0242 504.847,80.0242 504.999,80.0242 505.15,80.0242 505.301,80.0242 505.452,80.0242 505.604,80.0242 505.755,80.0242 505.906,80.0242 506.057,80.0242 506.208,80.0242 506.36,80.0242 506.511,80.0242 506.662,80.0242 506.813,80.0242 506.965,80.0242 507.116,80.0242 507.267,79.9392 507.418,79.9392 507.57,79.9392 507.721,79.9392 507.872,79.9392 508.023,79.9392 508.175,79.9392 508.326,79.9392 508.477,79.9392 508.628,79.9392 508.78,79.9392 508.931,79.9392 509.082,79.9392 509.233,79.9392 509.385,79.9392 509.536,79.9392 509.687,79.9392 509.838,79.9392 509.99,79.9392 510.141,79.9392 510.292,79.9392 510.443,79.9392 510.595,79.9392 510.746,79.9392 510.897,79.9392 511.048,79.9392 511.2,79.9392 511.351,79.9392 511.502,79.9392 511.653,79.9392 511.805,79.9392 511.956,79.9392 512.107,79.9392 512.258,79.9392 512.41,79.9392 512.561,79.9392 512.712,79.9392 512.863,79.9392 513.014,79.9392 513.166,79.9392 513.317,79.9392 513.468,79.9392 513.619,79.9392 513.771,79.9392 513.922,79.9392 514.073,79.9392 514.224,79.9392 514.376,79.9392 514.527,79.9392 514.678,79.9392 514.829,79.9392 514.981,79.9392 515.132,79.9392 515.283,79.9392 515.434,79.9392 515.586,79.9392 515.737,79.9392 515.888,79.9392 516.039,79.9392 516.191,79.9392 516.342,79.9392 516.493,79.9392 516.644,79.9392 516.796,79.9392 516.947,79.9392 517.098,79.9392 517.249,79.9392 517.401,79.9392 517.552,79.9392 517.703,79.9392 517.854,79.9392 518.005,79.9392 518.157,79.9392 518.308,79.9392 518.459,79.9392 518.611,79.9392 518.762,79.9392 518.913,79.9392 519.064,80.0242 519.215,80.0242 519.367,80.0242 519.518,80.0242 519.669,80.0242 519.82,80.0242 519.972,79.9392 520.123,79.9392 520.274,79.9392 520.425,80.0242 520.577,80.0242 520.728,80.0242 520.879,80.0242 521.03,80.0242 521.182,80.0242 521.333,80.0242 521.484,80.0242 521.635,80.0242 521.787,80.0242 521.938,80.0242 522.089,80.0242 522.24,80.0242 522.392,79.9392 522.543,79.9392 522.694,79.9392 522.845,79.9392 522.997,79.9392 523.148,79.9392 523.299,79.9392 523.45,79.9392 523.602,79.9392 523.753,79.9392 523.904,79.9392 524.055,79.9392 524.207,79.9392 524.358,79.9392 524.509,79.9392 524.66,79.9392 524.811,79.9392 524.963,79.9392 525.114,79.9392 525.265,79.9392 525.417,79.9392 525.568,79.9392 525.719,79.9392 525.87,79.9392 526.021,79.9392 526.173,79.9392 526.324,79.9392 526.475,79.9392 526.626,79.9392 526.778,79.9392 526.929,79.9392 527.08,79.9392 527.231,79.9392 527.383,79.9392 527.534,79.9392 527.685,79.9392 527.836,79.9392 527.988,79.9392 528.139,80.0242 528.29,80.0242 528.441,80.0242 528.593,80.0242 528.744,80.0242 528.895,80.0242 529.046,80.0242 529.198,80.0242 529.349,80.0242 529.5,80.0242 529.651,80.0242 529.803,80.0242 529.954,80.0242 530.105,80.0242 530.256,80.0242 530.408,80.0242 530.559,80.0242 530.71,80.0242 530.861,80.0242 531.012,80.0242 531.164,80.0242 531.315,80.0242 531.466,80.0242 531.617,80.0242 531.769,80.0242 531.92,80.0242 532.071,80.0242 532.222,80.0242 532.374,80.0242 532.525,80.0242 532.676,80.0242 532.827,80.0242 532.979,80.0242 533.13,80.0242 533.281,80.0242 533.432,80.0242 533.584,80.0242 533.735,80.0242 533.886,80.0242 534.037,80.0242 534.189,80.0242 534.34,80.0242 534.491,80.0242 534.642,80.0242 534.794,80.0242 534.945,80.0242 535.096,80.0242 535.247,80.0242 535.399,80.0242 535.55,80.0242 535.701,80.0242 535.852,80.0242 536.004,80.0242 536.155,80.0242 536.306,80.0242 536.457,80.0242 536.609,80.0242 536.76,80.0242 536.911,80.0242 537.062,80.0242 537.214,80.0242 537.365,80.0242 537.516,80.0242 537.667,80.0242 537.818,80.0242 537.97,80.0242 538.121,80.0242 538.272,80.0242 538.423,80.0242 538.575,80.0242 538.726,80.0242 538.877,79.9392 539.028,79.9392 539.18,79.9392 539.331,79.9392 539.482,79.9392 539.633,79.9392 539.785,79.9392 539.936,79.9392 540.087,79.9392 540.238,79.9392 540.39,79.9392 540.541,79.9392 540.692,79.9392 540.843,79.9392 540.995,79.9392 541.146,79.9392 541.297,79.9392 541.448,79.9392 541.6,79.9392 541.751,79.9392 541.902,79.9392 542.053,79.9392 542.205,79.9392 542.356,79.9392 542.507,79.9392 542.658,79.9392 542.81,79.9392 542.961,79.9392 543.112,79.9392 543.263,79.9392 543.414,79.9392 543.566,79.9392 543.717,79.9392 543.868,79.9392 544.02,79.9392 544.171,79.9392 544.322,79.9392 544.473,79.9392 544.624,79.9392 544.776,79.9392 544.927,79.9392 545.078,79.9392 545.229,79.9392 545.381,79.9392 545.532,79.9392 545.683,79.9392 545.834,79.9392 545.986,79.9392 546.137,79.9392 546.288,79.9392 546.439,79.9392 546.591,79.9392 546.742,79.9392 546.893,79.9392 547.044,79.9392 547.196,79.9392 547.347,79.9392 547.498,79.9392 547.649,79.9392 547.801,79.9392 547.952,79.9392 548.103,79.9392 548.254,79.9392 548.406,80.0242 548.557,80.0242 548.708,80.0242 548.859,80.0242 549.01,80.0242 549.162,80.0242 549.313,80.0242 549.464,80.0242 549.615,80.0242 549.767,80.0242 549.918,80.0242 550.069,80.0242 550.22,80.0242 550.372,80.0242 550.523,80.0242 550.674,80.0242 550.825,80.0242 550.977,80.0242 551.128,79.9392 551.279,79.9392 551.43,79.9392 551.582,79.9392 551.733,79.9392 551.884,79.9392 552.035,79.9392 552.187,79.9392 552.338,79.9392 552.489,79.9392 552.64,80.0242 552.792,80.0242 552.943,80.0242 553.094,80.0242 553.245,80.0242 553.397,80.0242 553.548,80.0242 553.699,80.0242 553.85,80.0242 554.002,80.0242 554.153,80.0242 554.304,79.9392 554.455,79.9392 554.607,80.0242 554.758,80.0242 554.909,79.9392 555.06,79.9392 555.212,79.9392 555.363,79.9392 555.514,79.9392 555.665,79.9392 555.817,79.9392 555.968,79.9392 556.119,80.0242 556.27,80.0242 556.421,80.0242 556.573,79.9392 556.724,79.9392 556.875,79.9392 557.026,79.9392 557.178,79.9392 557.329,79.9392 557.48,79.9392 557.631,79.9392 557.783,79.9392 557.934,79.9392 558.085,79.9392 558.236,79.9392 558.388,79.9392 558.539,79.9392 558.69,79.9392 558.841,79.9392 558.993,79.9392 559.144,79.9392 559.295,79.9392 559.446,79.9392 559.598,79.9392 559.749,79.9392 559.9,79.9392 560.051,79.9392 560.203,79.9392 560.354,79.9392 560.505,79.9392 560.656,79.9392 560.807,79.9392 560.959,79.9392 561.11,79.9392 561.261,79.9392 561.413,79.9392 561.564,79.9392 561.715,79.9392 561.866,80.0242 562.018,80.0242 562.169,80.0242 562.32,80.0242 562.471,80.0242 562.622,80.0242 562.774,79.9392 562.925,79.9392 563.076,79.9392 563.227,79.9392 563.379,79.9392 563.53,79.9392 563.681,79.9392 563.832,79.9392 563.984,79.9392 564.135,79.9392 564.286,79.9392 564.437,79.9392 564.589,79.9392 564.74,79.9392 564.891,79.9392 565.042,79.9392 565.194,79.9392 565.345,79.9392 565.496,79.9392 565.647,79.9392 565.799,80.0242 565.95,80.0242 566.101,80.0242 566.252,80.0242 566.404,80.0242 566.555,80.0242 566.706,80.0242 566.857,80.0242 567.009,80.0242 567.16,80.0242 567.311,80.0242 567.462,80.0242 567.614,80.0242 567.765,80.0242 567.916,80.0242 568.067,80.0242 568.219,80.0242 568.37,80.0242 568.521,80.0242 568.672,80.0242 568.823,80.0242 568.975,80.0242 569.126,80.0242 569.277,80.0242 569.428,80.0242 569.58,80.0242 569.731,80.0242 569.882,80.0242 570.033,80.0242 570.185,80.0242 570.336,80.0242 570.487,80.0242 570.638,80.0242 570.79,80.0242 570.941,80.0242 571.092,80.0242 571.243,80.0242 571.395,80.0242 571.546,80.0242 571.697,80.0242 571.848,80.0242 572,80.0242 572.151,80.0242 572.302,80.0242 572.453,80.0242 572.605,80.0242 572.756,80.0242 572.907,80.0242 573.058,80.0242 573.21,80.0242 573.361,80.0242 573.512,80.0242 573.663,79.9392 573.815,79.9392 573.966,79.9392 574.117,79.9392 574.268,79.9392 574.419,79.9392 574.571,80.0242 574.722,80.0242 574.873,80.0242 575.024,80.0242 575.176,80.0242 575.327,80.0242 575.478,80.0242 575.629,80.0242 575.781,80.0242 575.932,80.0242 576.083,80.0242 576.234,80.0242 576.386,80.0242 576.537,80.0242 576.688,80.0242 576.839,80.0242 576.991,80.0242 577.142,80.0242 577.293,80.0242 577.444,80.0242 577.596,80.0242 577.747,80.0242 577.898,80.0242 578.049,80.0242 578.201,80.0242 578.352,80.0242 578.503,80.0242 578.654,80.0242 578.806,80.0242 578.957,80.0242 579.108,80.0242 579.259,80.0242 579.411,80.0242 579.562,80.0242 579.713,80.0242 579.864,80.0242 580.016,80.0242 580.167,79.9392 580.318,79.9392 580.469,79.9392 580.62,79.9392 580.772,79.9392 580.923,79.9392 581.074,79.9392 581.225,79.9392 581.377,79.9392 581.528,79.9392 581.679,79.9392 581.83,79.9392 581.982,79.9392 582.133,79.9392 582.284,79.9392 582.435,79.9392 582.587,79.9392 582.738,79.9392 582.889,79.9392 583.04,79.9392 583.192,79.9392 583.343,79.9392 583.494,79.9392 583.645,79.9392 583.797,79.9392 583.948,79.9392 584.099,79.9392 584.25,79.9392 584.402,79.9392 584.553,79.9392 584.704,79.9392 584.855,79.9392 585.007,79.9392 585.158,79.9392 585.309,79.9392 585.46,79.9392 585.612,79.9392 585.763,79.9392 585.914,79.9392 586.065,79.9392 586.217,79.9392 586.368,79.9392 586.519,79.9392 586.67,79.9392 586.822,79.9392 586.973,80.0242 587.124,80.0242 587.275,80.0242 587.427,80.0242 587.578,80.0242 587.729,79.9392 587.88,79.9392 588.031,79.9392 588.183,80.0242 588.334,80.0242 588.485,80.0242 588.636,80.0242 588.788,80.0242 588.939,80.0242 589.09,80.0242 589.241,80.0242 589.393,80.0242 589.544,80.0242 589.695,80.0242 589.846,80.0242 589.998,80.0242 590.149,79.9392 590.3,79.9392 590.451,79.9392 590.603,79.9392 590.754,79.9392 590.905,79.9392 591.056,79.9392 591.208,79.9392 591.359,79.9392 591.51,79.9392 591.661,79.9392 591.813,79.9392 591.964,79.9392 592.115,79.9392 592.266,79.9392 592.417,79.9392 592.569,79.9392 592.72,79.9392 592.871,79.9392 593.023,79.9392 593.174,79.9392 593.325,79.9392 593.476,79.9392 593.628,79.9392 593.779,79.9392 593.93,79.9392 594.081,79.9392 594.232,79.9392 594.384,79.9392 594.535,79.9392 594.686,79.9392 594.837,79.9392 594.989,79.9392 595.14,79.9392 595.291,79.9392 595.442,79.9392 595.594,79.9392 595.745,79.9392 595.896,79.9392 596.047,79.9392 596.199,79.9392 596.35,79.9392 596.501,79.9392 596.652,79.9392 596.804,79.9392 596.955,79.9392 597.106,79.9392 597.257,79.9392 597.409,79.9392 597.56,79.9392 597.711,79.9392 597.862,79.9392 598.014,79.9392 598.165,79.9392 598.316,79.9392 598.467,79.9392 598.619,79.9392 598.77,79.9392 598.921,79.9392 599.072,79.9392 599.224,79.9392 599.375,79.9392 599.526,79.9392 599.677,79.9392 599.828,79.9392 599.98,79.9392 600.131,79.9392 600.282,79.9392 600.433,79.9392 600.585,79.9392 600.736,79.9392 600.887,79.9392 601.038,79.9392 601.19,79.9392 601.341,79.9392 601.492,79.9392 601.643,79.9392 601.795,79.9392 601.946,79.9392 602.097,79.9392 602.248,79.9392 602.4,79.9392 602.551,79.9392 602.702,79.9392 602.853,79.9392 603.005,79.9392 603.156,79.9392 603.307,79.9392 603.458,79.9392 603.61,79.9392 603.761,79.9392 603.912,79.9392 604.063,79.9392 604.215,79.9392 604.366,79.9392 604.517,79.9392 604.668,79.9392 604.82,79.9392 604.971,79.9392 605.122,79.9392 605.273,79.9392 605.424,79.9392 605.576,79.9392 605.727,79.9392 605.878,79.9392 606.029,79.9392 606.181,79.9392 606.332,79.9392 606.483,79.9392 606.634,79.9392 606.786,79.9392 606.937,79.9392 607.088,79.9392 607.239,79.9392 607.391,79.9392 607.542,79.9392 607.693,79.9392 607.844,79.9392 607.996,79.9392 608.147,79.9392 608.298,79.9392 608.449,79.9392 608.601,79.9392 608.752,79.9392 608.903,79.9392 609.054,79.9392 609.206,79.9392 609.357,79.9392 609.508,79.9392 609.659,79.9392 609.811,79.9392 609.962,80.0242 610.113,80.0242 610.264,80.0242 610.416,80.0242 610.567,80.0242 610.718,80.0242 610.869,80.0242 611.021,80.0242 611.172,80.0242 611.323,80.0242 611.474,80.0242 611.625,80.0242 611.777,80.0242 611.928,80.0242 612.079,80.0242 612.23,80.0242 612.382,80.0242 612.533,80.0242 612.684,79.9392 612.835,79.9392 612.987,79.9392 613.138,79.9392 613.289,79.9392 613.44,79.9392 613.592,79.9392 613.743,79.9392 613.894,79.9392 614.045,79.9392 614.197,79.9392 614.348,79.9392 614.499,79.9392 614.65,79.9392 614.802,79.9392 614.953,79.9392 615.104,79.9392 615.255,79.9392 615.407,79.9392 615.558,79.9392 615.709,79.9392 615.86,79.9392 616.012,79.9392 616.163,79.9392 616.314,79.9392 616.465,79.9392 616.617,79.9392 616.768,79.9392 616.919,80.0242 617.07,80.0242 617.222,80.0242 617.373,80.0242 617.524,80.0242 617.675,80.0242 617.826,80.0242 617.978,80.0242 618.129,80.0242 618.28,80.0242 618.431,80.0242 618.583,80.0242 618.734,80.0242 618.885,80.0242 619.036,80.0242 619.188,80.0242 619.339,80.0242 619.49,80.0242 619.641,80.0242 619.793,80.0242 619.944,80.0242 620.095,80.0242 620.246,80.0242 620.398,80.0242 620.549,80.0242 620.7,80.0242 620.851,80.0242 621.003,80.0242 621.154,80.0242 621.305,80.0242 621.456,80.0242 621.608,80.0242 621.759,79.9392 621.91,79.9392 622.061,79.9392 622.213,79.9392 622.364,79.9392 622.515,79.9392 622.666,79.9392 622.818,79.9392 622.969,79.9392 623.12,79.9392 623.271,79.9392 623.423,79.9392 623.574,79.9392 623.725,79.9392 623.876,79.9392 624.027,79.9392 624.179,79.9392 624.33,79.9392 624.481,79.9392 624.632,79.9392 624.784,80.0242 624.935,80.0242 625.086,80.0242 625.237,80.0242 625.389,80.0242 625.54,80.0242 625.691,80.0242 625.842,80.0242 625.994,80.0242 626.145,80.0242 626.296,80.0242 626.447,80.0242 626.599,80.0242 626.75,80.0242 626.901,80.0242 627.052,80.0242 627.204,80.0242 627.355,80.0242 627.506,80.0242 627.657,80.0242 627.809,80.0242 627.96,80.0242 628.111,80.0242 628.262,80.0242 628.414,80.0242 628.565,80.0242 628.716,80.0242 628.867,80.0242 629.019,80.0242 629.17,80.0242 629.321,79.9392 629.472,80.0242 629.624,80.0242 629.775,80.0242 629.926,80.0242 630.077,80.0242 630.229,79.9392 630.38,79.9392 630.531,79.9392 630.682,79.9392 630.833,79.9392 630.985,79.9392 631.136,79.9392 631.287,79.9392 631.438,79.9392 631.59,79.9392 631.741,79.9392 631.892,79.9392 632.043,79.9392 632.195,79.9392 632.346,79.9392 632.497,79.9392 632.648,79.9392 632.8,79.9392 632.951,79.9392 633.102,79.9392 633.253,79.9392 633.405,79.9392 633.556,79.9392 633.707,79.9392 633.858,79.9392" stroke-width="2" fill="none" stroke-linecap="butt" stroke="#0071bc"/>
  </g>
  <clipPath id="cp00780521">
   <polygon points="0,521 780,521 780,0 0,0"/>
  </clipPath>
  <g clip-path="url(#cp00780521)">
   <polygon shape-rendering="crispEdges" points="623.487,65.1119 698.462,65.1119 698.462,47.1182 623.487,47.1182" fill="#ffffff"/>
   <polyline stroke-linejoin="miter" points="623.487,65.1119 698.462,65.1119" stroke-width="0.5" stroke-dasharray="16,0" fill="none" stroke-linecap="square" stroke="#262626"/>
   <polyline stroke-linejoin="miter" points="623.487,47.1182 698.462,47.1182" stroke-width="0.5" stroke-dasharray="16,0" fill="none" stroke-linecap="square" stroke="#262626"/>
   <polyline stroke-linejoin="miter" points="623.487,65.1119 623.487,47.1182" stroke-width="0.5" stroke-dasharray="16,0" fill="none" stroke-linecap="square" stroke="#262626"/>
   <polyline stroke-linejoin="miter" points="698.462,65.1119 698.462,47.1182" stroke-width="0.5" stroke-dasharray="16,0" fill="none" stroke-linecap="square" stroke="#262626"/>
   <polyline stroke-linejoin="round" points="627.484,56.1151 647.468,56.1151" stroke-width="2" fill="none" stroke-linecap="butt" stroke="#0071bc"/>
   <text font-style="normal" font-family="FreeSans" font-size="9" xml:space="preserve" transform="translate(651.465,61.1151) rotate(-0,-0,-5)" font-weight="normal">
    <tspan x="0 3 8 13 18 21 23 28 33 38 " y="-2" fill="rgb(0,0,0)">t=15, c=92</tspan>
   </text>
  </g>
 </g>
</svg>
